<svg xmlns="http://www.w3.org/2000/svg" fill="#000" viewBox="0 0 24 24"><path d="M16 7a1 1 0 1 1 2 0 1 1 0 0 1-2 0Z"/><path fill-rule="evenodd" d="M12 7.25a4.75 4.75 0 1 0 0 9.5 4.75 4.75 0 0 0 0-9.5ZM8.75 12a3.25 3.25 0 1 1 6.5 0 3.25 3.25 0 0 1-6.5 0Z" clip-rule="evenodd"/><path fill-rule="evenodd" d="M17.258 2.833a47.721 47.721 0 0 0-10.516 0c-2.012.225-3.637 1.81-3.873 3.832a45.922 45.922 0 0 0 0 10.67c.236 2.022 1.86 3.607 3.873 3.832 3.466.387 7.05.387 10.516 0 2.012-.225 3.637-1.81 3.873-3.832a45.914 45.914 0 0 0 0-10.67c-.236-2.022-1.86-3.607-3.873-3.832Zm-10.35 1.49a46.22 46.22 0 0 1 10.184 0c1.33.15 2.395 1.199 2.55 2.517a44.421 44.421 0 0 1 0 10.32c-.155 1.318-1.22 2.368-2.55 2.516a46.217 46.217 0 0 1-10.184 0c-1.33-.148-2.395-1.198-2.55-2.516a44.421 44.421 0 0 1 0-10.32c.155-1.318 1.22-2.368 2.55-2.516Z" clip-rule="evenodd"/></svg>